<svg version="1" xmlns="http://www.w3.org/2000/svg" width="346.667" height="346.667" viewBox="0 0 260.000000 260.000000"><path d="M0 130v130h260V0H0v130zM215.6 17.8c2.2 1.5 7.5 10.3 7.2 11.9-.3 1.8-.9 2-16.3 4.8-4.9.8-16.9 4.2-26.5 7.4-9.6 3.3-18.4 6.1-19.4 6.3-6 1.1 1.5-8.5 12.3-15.6 16.8-11.1 37.6-18.3 42.7-14.8zM135 51c0 .6-2.5 5.9-5.5 11.9-7.3 14.6-9.5 21.5-9.5 29.8 0 8 2.2 13.2 6.3 15.1 2.5 1.2 3.4 1.1 9-1.6 3.4-1.6 11.1-5.9 17.1-9.6 15.4-9.3 16.3-8.9 5.6 3.2-11.8 13.4-35.9 30.2-43.2 30.2-6.8 0-13-6.7-16.5-17.8-1.5-4.6-1.5-6.1-.4-11.5 1.8-9.1 9-23 16.9-32.8C124.8 55.6 135 47.1 135 51zm96.5 3c7.3 1.2 9 3 10 10.6 1 8 .5 8.2-11.8 6-7.1-1.3-17-2-32.4-2.4-17.6-.3-22.3-.7-22.3-1.8 0-4.9 25.9-12.1 47.5-13.2 1.7-.1 5.7.2 9 .8zm-84.6 9.5c1.8 1.8.7 6.1-2 7.6-2.7 1.4-6.6.4-7.9-2.1-3-5.7 5-10.1 9.9-5.5zm-55.1 37.7c.7.7 1.2 3.1 1.2 5.3 0 5-2 7.1-10.2 10.8-22.1 9.9-41.3 33.1-50.8 61.5-5.5 16.4-6.4 34.9-1.9 40.6 2.7 3.4 6.4 4 15 2 10.2-2.3 39-12.5 39.6-14.1.3-.7-2.1-3.7-5.2-6.7-4.3-4.1-5.6-5.9-5.3-7.7.3-2.2.8-2.4 6.8-2.7 6.9-.3 17.4 2.3 27.8 6.9 5 2.2 5.5 2.3 16 1.1 18.9-2.1 29.2-1.1 29.2 2.7 0 1.1-.8 2.2-1.7 2.6-5.4 2-16.2 9.2-16.3 10.7 0 2.1 9.2 9 17.3 13.1 4.6 2.3 7.2 2.9 12.1 2.9 7.4 0 10.9-1.5 16-7.3 7.6-8.3 11-20.1 10.9-37.4-.2-28.6-12.8-51.3-35.9-64.5-3-1.8-5.8-3.9-6.1-4.6-.8-2.2 2.4-6.3 6.3-8.2 3.5-1.6 3.6-1.6 10.2 1.8 9.2 4.7 24.2 19.7 29.9 30 17.2 30.7 15.6 71.8-3.5 92.2-8.1 8.7-16.1 12-28.7 12-13-.1-22.9-4.6-41-18.7-9.8-7.6-11.5-8.5-15.7-8.5-1.8 0-13.9 3.6-26.8 8.1-34.2 11.7-44.1 13.7-54.4 10.8-5.4-1.5-12.1-8-14.1-13.7-2.5-7.2-3-18.4-1.1-28.8 7.3-42.3 35.4-79 69.8-91.4 6.2-2.3 8.9-2.5 10.6-.8z"/></svg>