<svg version="1" xmlns="http://www.w3.org/2000/svg" width="1418.667" height="1418.667" viewBox="0 0 1064.000000 1064.000000"><path d="M1006.3 87.4c-4 1.3-7.3 2.2-7.3 1.9 0-.3-.6-.1-1.2.4-.7.6-2.6 1.4-4.3 1.8-3.4.9-3.5 1-5.5 1.8-.8.3-6.7 2.2-13 4.2s-12.2 3.9-13 4.2c-.8.3-1.9.7-2.5.9-1.7.4-32.4 10.4-48 15.6-8.2 2.8-15.4 5.1-16 5.2-.5.1-3.5 1.1-6.5 2.1-3 1.1-5.7 2-6 2-2.8.6-9.8 3-10.7 3.8-.7.5-1.7.6-2.2.3-.5-.4-1.2-.2-1.6.4-.4.6-1.1.8-1.6.5-.5-.4-.9-.1-.9.5s-.4.9-1 .5c-.5-.3-1.7-.1-2.7.4-1 .6-5.6 2.2-10.3 3.6-4.7 1.4-9.2 3-10 3.4-1.9 1-8.2 2.6-9.2 2.3-.5-.1-.8.2-.8.6 0 .5-.6.9-1.2.9-1.1 0-29.6 9.1-34.8 11.1-.8.3-1.7.6-2 .7-.3 0-5.2 1.6-11 3.5s-10.8 3.5-11.2 3.6c-.5.1-1 .3-1.3.4-.3.1-.8.3-1.2.4-.5.1-14.2 4.6-30.5 9.9-16.4 5.4-29.9 9.7-30 9.6-.2-.1-1.2.3-2.4.9-1.1.6-3.2 1.3-4.5 1.6-1.3.3-7.1 2.1-12.9 4.1-5.8 2-11.2 3.8-12 4-.8.2-7.8 2.5-15.5 5-7.7 2.6-14.4 4.8-15 4.9-.5.2-1.7.6-2.5.9-.8.3-14.3 4.7-30 9.7-15.7 5-29.8 9.6-31.5 10.3-1.6.6-3.4 1.2-4 1.3-.5.1-7.2 2.2-14.8 4.8-7.7 2.5-14.3 4.6-14.7 4.6-.5 0-2.1.5-3.7 1.2-1.5.6-3 1.2-3.3 1.3-.3.1-2.3.7-4.6 1.3-4.6 1.4-10.4 5-11.4 7.2-.4.8-1.1 2.4-1.7 3.4-1.1 2.2.2 7.2 8.6 34.3.5 1.8.7 3.3.4 3.3-.3 0-.1.6.4 1.2 1 1.3 2.5 6 2.8 8.8.1.9.7 2.6 1.4 3.8.6 1.2.9 2.2.5 2.2-.3 0 0 .7.7 1.7.8.9 1.3 1.9 1.2 2.2-.4 1.1 1.7 7.6 3 9.1 1.7 2.1 7.8 4 10.7 3.4 3.5-.8 15.1-4.4 17.5-5.4 4.2-1.8 8.8-3 9.5-2.5.5.3 1.1.1 1.4-.4.3-.5 3.9-1.9 7.8-3 4-1.2 8.2-2.6 9.3-3.1 3-1.3 18.8-6.3 20.3-6.3.6 0 1.2-.4 1.2-.9s.4-.7.9-.3c.5.3 1.2.1 1.6-.4.3-.6 1.2-.8 2-.4.8.3 1.5-.1 1.5-.8 0-.7.3-1 .6-.7.5.6 10.1-2.2 14.9-4.2 1.1-.5 4.5-1.6 7.5-2.5 3-.9 6.2-1.9 7-2.2.8-.3 2-.7 2.5-.8.6-.1 5.5-1.7 11-3.5 5.5-1.9 10.5-3.3 11.2-3.3.7 0 1.3-.4 1.3-.9 0-.4.6-.8 1.3-.8.7 0 6.8-1.8 13.7-4.1 6.9-2.3 13-4.2 13.5-4.4.6-.1 1.7-.5 2.5-.8 1.8-.7 27-8.8 28.4-9.2.6-.1 1.8-.5 2.6-.8.8-.4 8.7-2.9 17.5-5.7 8.8-2.8 17.4-5.6 19-6.3 1.7-.6 3.5-1.2 4-1.3.6-.1 8.9-2.8 18.5-6s17.8-5.9 18.3-6c.4-.1.8-.2 1-.4.1-.1.9-.3 1.7-.5.8-.1 6.5-2 12.5-4 6.1-2 11.7-3.8 12.5-4 .8-.2 7.1-2.2 13.9-4.5 6.8-2.3 12.9-4.3 13.5-4.5.6-.1 1.8-.5 2.6-.8.8-.3 6.7-2.2 13-4.2s12.4-4 13.5-4.5c1.8-.7 25.2-8.2 26.5-8.5 1.1-.2 43-13.9 49-16 3.6-1.2 10.6-3.5 15.5-5 5-1.6 9.6-3.2 10.3-3.8.6-.5 1.2-.7 1.2-.4 0 .3 5.3-1.2 11.8-3.4 6.4-2.2 12.2-4.2 12.7-4.3 7.1-2 11.3-8.1 9.9-14.6-1-5-1-5-2.8-10.1-.8-2.5-1.7-5.4-1.9-6.5-.2-1-.7-2.6-1-3.4-.3-.8-1.3-4.2-2.2-7.5-1-3.3-2.3-7.7-3.1-9.8-.8-2-1.2-3.7-.9-3.7.2 0-.3-1.6-1.1-3.5s-1.2-3.5-1-3.5c.3 0-.1-1.5-.9-3.3-.7-1.7-1.3-3.4-1.2-3.7 0-.3-.7-2.1-1.7-4.1-1.1-2.3-2.7-3.9-4.9-4.7-4.5-1.6-6-1.5-14.4 1.2zm-623.6 29.4c-2.3 2.5-3.5 6.3-4.2 12.9-.4 3.2-.9 7.4-1.1 9.3-.2 1.9-.6 5.3-.8 7.5-.3 2.2-.7 5.6-1 7.5-.3 1.9-.8 5.7-1.1 8.5-.2 2.7-.7 6.1-.9 7.5-.3 1.4-.7 5-1 8-.2 3.1-.7 6.7-1 8-.3 1.4-.8 5-1 8-.8 9.2-1.7 17.4-2.2 20-.2 1.4-.7 4.5-.9 7-1 8.7-2.7 22.5-3 25-1.8 11.4-1.6 13.3 2.5 25 2.3 6.3 4.3 12.4 4.5 13.5.5 2.1 7.1 21.8 8.2 24.5.3.8.7 2 .9 2.7.2 1.3 6.2 19.8 7.1 22.3.3.8.7 1.9.9 2.5.1.5.8 2.6 1.5 4.5 1.7 4.8 2.2 6.4 2.4 7 .5 1.9 2.8 8.9 3.5 10.5.5 1.1 2.2 6.5 3.9 12 1.7 5.5 3.5 10.9 4 12 .8 2 5.2 15.1 5.6 17 .2.9.6 2.2 2.3 6.5.3.8.6 1.7.6 2 .1.3 2.1 6.5 4.5 13.9 4.9 14.7 6.1 16.2 13.4 16.6 4 .2 5.3-.1 12.4-3.1 1.7-.8 3.8-1.4 4.6-1.4.9 0 1.8-.4 2.2-.9.3-.5 2-1.3 3.7-1.7 1.8-.3 3.9-1 4.8-1.5 1.2-.6 42.5-16.2 74.4-28 5.4-2 8.2-4.2 10.1-7.9 1.4-2.7 1.2-9.5-.4-11.4-.5-.6-1.2-2.3-1.4-3.6-.2-1.4-.7-3.4-1.1-4.5-.5-1.1-1.2-3.1-1.6-4.5-.4-1.4-1.1-3.4-1.6-4.5-.4-1.1-.8-2.5-.9-3-.4-1.6-8.7-26.8-9.6-29-.4-1.1-2.6-7.9-4.9-15-2.4-7.2-4.5-13.7-4.8-14.5-.3-.8-.6-2-.8-2.5-.1-.6-2.3-6.9-4.7-14.2-2.5-7.2-4.3-13.4-3.9-13.7.3-.3 0-.6-.6-.6-.7 0-1.2-.9-1.2-2s-.4-2.8-.9-3.8c-.4-.9-1.8-4.9-3-8.7-1.3-3.9-2.5-7.7-2.7-8.5-.3-.8-.4-1.5-.3-1.5.1 0-.3-1-1-2.3-1.2-2.3-2.2-5.5-2.3-8-.1-.6-.5-1.2-1-1.2-.4 0-.8-.8-.8-1.8 0-.9-1.6-6.4-3.6-12.2l-3.6-10.5-12.8-12.8c-7.1-7-19.5-19.8-27.7-28.4-8.1-8.6-17.5-18.5-20.8-21.9-9.3-9.7-26.9-28.5-27.5-29.3-1.1-1.6-8.3-5.1-10.4-5.1-1.3 0-3 .8-3.9 1.8zm-12.8 353c-.2 1.5.2 21.2.7 30.7.6 13.7 1.5 22.4 3.6 35.5.5 3.6 1.2 7.8 1.4 9.5 1.6 10.6 12.3 47 14.3 48.5.3.3.7 1.2.9 2 1.1 4.8 13.2 27.3 21.7 40.2 4.3 6.5 4.8 9 1 4.8-1-1.1-2.2-2-2.7-2-.8 0-6.4-3.6-7.8-5-.3-.3-3.4-3-7-6-11.2-9.3-19.4-18.5-27.4-30.5-7.8-11.7-18.2-32.6-16.9-33.9.4-.3 0-.6-.7-.6s-1.1-.3-.8-.6c.4-.3 0-2.1-.8-4s-1.1-3.4-.8-3.4c.4 0 .2-.6-.4-1.3-.6-.7-1.3-2.4-1.5-3.7-.3-1.4-1.2-5.7-2.1-9.5-2.3-9.7-3.3-14.9-4.1-23.5-.2-1.4-.4-2.6-.5-2.8-.1-.1-.3-.7-.4-1.4-.1-1.3-19.5-2.3-19.7-1-.1.8-.6 24.3-1.3 71.7-.3 17.6-.5 32.2-.5 32.5-.1.2-1.2-1.1-2.5-3.1-6.7-9.9-15.2-33.5-17.1-47.9-.2-1.4-.6-3.6-.9-5-.3-1.4-.9-6.1-1.2-10.5-.3-4.4-.8-8.2-1-8.5-.3-.3-10.8-.6-23.2-.7-12.5-.1-23.5-.4-24.4-.7-1-.2-1.8-.1-1.8.3s-2.4.4-5.2.1c-2.9-.4-5.5-.3-5.6.1-.2.5-.8.7-1.3.3-1.3-.8-22.4-.8-23.8 0-.6.4-1.1.4-1.1-.1 0-.4-2.9-.8-6.4-.8-3.6 0-6.2.4-5.8.9.3.5-.1.6-.8.1-1.4-.9-17.8-1-18.7-.2-.3.3-1.7.1-3.1-.4-1.5-.6-2.9-.6-3.4-.1s-2.7.6-4.8.2c-2.1-.4-4.4-.4-5.1.1-.7.4-1.8.5-2.3.2-1.4-.9-5.9-.8-7.4.1-.7.4-1.2.4-1.2-.1 0-.4-1.7-.7-3.7-.6-8.2.3-11.1.4-19.3.4-50.6-.1-105.6.2-106.2.5-.8.5 3.1 7.7 4.4 8.2.4.2.8.9.8 1.6 0 2.3 15 21.6 22.6 29 7.1 7 14.7 13.8 20.4 18.2 7.4 5.8 20.8 15.4 21.5 15.4.2 0 2.4 1.3 4.8 3 2.5 1.6 5 3 5.6 3 .6 0 1.1.4 1.1.8s1.5 1.5 3.3 2.3c1.7.9 7.5 3.8 12.7 6.5 5.2 2.7 12.4 6.2 16 7.8 3.6 1.6 8.3 3.7 10.4 4.8 2.2 1 4.6 1.8 5.3 1.8.7 0 2.1.4 3.1.9 6 3 19.8 7.9 33.2 11.6 5.2 1.4 10.2 2.9 11 3.2.8.4 2.3.7 3.3.8.9.2 2 .4 2.5.5.4.2 1.2.4 1.7.5l1.5.5c1.2.4 4.7 1.1 7.8 1.5 1.8.2 3.7.7 4.3 1 .6.4 2.5.9 4.2 1.2 1.8.2 4.3.6 5.7.9 20.5 3.6 34.8 5.2 52.5 5.8 4.5.1 8.6.5 9.2.9.6.4 1.4.3 1.8-.3.4-.6 1.1-.7 1.7-.4 1.2.8 20.9 1.4 49 1.7 9.8.1 17.8.5 17.8.9s1.3.3 2.9-.2c1.6-.4 3.1-.6 3.4-.4.2.3 8.9.5 19.3.6 14.5.1 20.5.5 26 1.9 7.9 2 24.1 9.2 31 13.8 2.5 1.7 4.9 3.1 5.4 3.1.4 0 1 .4 1.2.8.2.5 2.6 2.3 5.3 4.2 7.5 5.1 23.5 21.6 28.7 29.5 4.8 7.5 11.2 19.5 10.3 19.5-.3 0 0 1 .7 2.2 1.4 2.7 1.3 2.2 3.4 11.3 1.7 7.6 2.2 22.7 1.1 31.5-.7 5.7-1.4 9.5-1.7 9.5-.1 0-.3 1.1-.5 2.5-.5 4.1-5.4 17-9.2 24.1-12.2 23-34.8 42.3-60.9 52.3-3.9 1.4-8.1 2.8-9.2 3.1-1.2.2-2.6.6-3.1.9-1.2.8-14.6 3.7-20.1 4.3-2.5.3-8 .6-12.2.7-4.3.1-7.8.4-7.8.8 0 .5-.6.7-1.2.5-1-.1-1.3 9.3-1.5 43.3l-.2 43.6 13.7.1c7.5.1 38 .4 67.8.7l54.1.6.1-11.7c.1-13.3.3-70.1.2-72 0-.9-4.3-1.3-16.7-1.5l-16.7-.3 19.9-12c10.9-6.6 21.7-13.1 24.1-14.4 3.7-2.1 5.1-4 5.8-8.1.2-1.1 2.9-7.7 4.9-12 1.2-2.5 2.1-4.7 2.1-5 .1-.7 9.8-16.4 10.6-17 .3-.3 1.6-2.1 2.8-4 2.2-3.6 3.2-4.9 13-16 5.9-6.6 15.2-15.8 19.1-18.8 1.3-.9 3.3-2.6 4.5-3.7 1.2-1.1 3.2-2.6 4.4-3.3 2.1-1.2 2.2-1.1 1 .8-.7 1.1-1.6 2-1.9 2-.3 0-1.4 1.8-2.4 4s-2.2 4-2.7 4c-.4 0-.8.5-.8 1.1 0 .6-.9 2.4-2.1 4-1.1 1.6-1.7 2.9-1.3 2.9.3 0 .1.7-.6 1.5-2.4 2.9-13.9 27.6-14.4 31-.1.5-.5 1.5-.9 2.2-.6.9-6.5 18.5-7.2 21.3-.1.3-.7 2.5-1.4 5s-1.5 5.6-1.7 7c-.3 1.4-.8 3.4-1.1 4.5-.9 2.7-1.6 6-2.8 13.7-.3 1.8-1 5.5-1.5 8.3-1.8 9-3.1 23.5-3.4 38.2-.2 9.6 0 11.3 1.4 11.4 9.1.5 28 .2 28-.4 0-.5.5-.5 1.1-.1 1.2.7 15.7 1 16.4.2.3-.2 2.8-.2 5.5.2 2.8.4 5.3.3 5.6-.1.3-.5 1.5-.4 2.8.1 1.3.5 2.6.6 2.9.3.4-.3 32.6-.6 71.7-.8 39-.1 71.3-.5 71.7-.8.6-.7.6-10.6-.2-22.2-1.2-20.1-1.9-28-2.5-28-.1 0-.3-2-.5-4.5-.3-5.3-2.3-16.4-3.6-20-.4-1.4-1-3.6-1.2-5-.2-1.4-.6-3.2-.9-4-.4-.8-1.6-4.9-2.9-9-2.7-9.1-9.5-24.5-14.7-33.5-3-5.3-13-19.9-15.6-22.9-1.5-1.6-2.6-3.2-2.6-3.5 0-.3-1.2-1.9-2.6-3.4-1.4-1.6-2.4-3-2.2-3.2.4-.4 12.9 7.2 13.8 8.4.3.3 2.1 1.8 4 3.2 4.6 3.5 15.7 14.4 19.7 19.4 8.1 10.1 11.3 14.5 11.3 15.4 0 .5.4 1.1.8 1.3 1.7.6 15.2 25 15.2 27.3 0 2 4.5 10.5 5.5 10.5.7 0 1.8.7 2.5 1.5.6.8 1.5 1.4 1.8 1.2.4-.1 1.8.6 3.2 1.4 1.4.9 6.6 4.1 11.5 7.2 5 3.1 12.1 7.6 15.9 10.1l6.9 4.6-17.8.2-17.8.3.3 11c.1 6 .3 24.7.5 41.4s.6 30.5.7 30.7c.3.2 141.3 1.2 141.9.9.4-.1.9-84.4.5-86-.4-1.4-1.4-2.1-3.2-2.3-1.5-.1-3.2-.6-3.8-1.1-.6-.4-2.4-1.1-4.1-1.5-1.6-.4-5-1.7-7.4-2.8-2.5-1.1-5-2.1-5.6-2.2-.9-.2-16.4-8.2-22.4-11.6-15.1-8.6-34.1-25.2-46.6-41-3.3-4.1-6.4-7.8-6.8-8.1-.5-.3-.9-1-.9-1.5-.1-1-2.9-5.6-3.9-6.4-2.3-1.7-15.1-31.5-16.3-37.7-.2-1-.9-3.8-1.6-6.2-.6-2.4-1.4-6.1-1.6-8.3-.3-2.2-.8-5.9-1.2-8.2-.9-4.5-.7-21.7.2-25.6.3-1.4.9-4.1 1.3-6 .4-1.9.8-3.7.8-4 3-12.8 16-38.8 25-49.7.5-.7 1.5-1.8 2-2.5 23.3-30.8 62.2-57.9 98-68.3 3.3-.9 7.1-2.1 8.5-2.5 1.4-.5 4.1-1.1 6-1.4 1.9-.3 4.6-.8 6-1.1 1.4-.3 4.1-.7 6-1 1.9-.2 3.5-.5 3.5-.5 0-.6 16.9-1 50.5-1.4 21.2-.2 39.2-.5 40-.5 1.3-.1 1.5-7.4 1.7-58.9l.3-58.7-94.8-.2c-52.1-.1-203.3-.4-335.9-.7-132.7-.3-241.3-.3-241.4.2z"/></svg>