<?xml version="1.0" encoding="UTF-8" standalone="no"?>
<svg
   xmlns:dc="http://purl.org/dc/elements/1.1/"
   xmlns:cc="http://creativecommons.org/ns#"
   xmlns:rdf="http://www.w3.org/1999/02/22-rdf-syntax-ns#"
   xmlns:svg="http://www.w3.org/2000/svg"
   xmlns="http://www.w3.org/2000/svg"
   xmlns:sodipodi="http://sodipodi.sourceforge.net/DTD/sodipodi-0.dtd"
   xmlns:inkscape="http://www.inkscape.org/namespaces/inkscape"
   width="180.717"
   height="54"
   viewBox="0 0 180.71665 54.000006"
   id="svg2"
   version="1.1"
   inkscape:version="0.91 r13725"
   sodipodi:docname="lawOffice-logo.svg">
  <metadata
     id="metadata32">
    <rdf:RDF>
      <cc:Work
         rdf:about="">
        <dc:format>image/svg+xml</dc:format>
        <dc:type
           rdf:resource="http://purl.org/dc/dcmitype/StillImage" />
        <dc:title></dc:title>
      </cc:Work>
    </rdf:RDF>
  </metadata>
  <defs
     id="defs30" />
  <sodipodi:namedview
     pagecolor="#ffffff"
     bordercolor="#666666"
     borderopacity="1"
     objecttolerance="10"
     gridtolerance="10"
     guidetolerance="10"
     inkscape:pageopacity="0"
     inkscape:pageshadow="2"
     inkscape:window-width="1179"
     inkscape:window-height="480"
     id="namedview28"
     showgrid="false"
     inkscape:zoom="1.9643974"
     inkscape:cx="90.358498"
     inkscape:cy="27"
     inkscape:window-x="41"
     inkscape:window-y="0"
     inkscape:window-maximized="0"
     inkscape:current-layer="svg2" />
  <path
     d="M16.404 27.912a.03.03 0 0 0 .007-.005M5.298 40.352l.046.054"
     fill="none"
     stroke="#01305c"
     stroke-width=".277"
     id="path4" />
  <path
     d="M24.954 26.816c.184.927-.858 1.518-1.653 1.453-1.447-.117-2.245-1.663-1.998-2.986.365-1.954 2.478-2.988 4.319-2.542 2.462.596 3.737 3.296 3.087 5.651-.82 2.972-4.115 4.49-6.984 3.632-3.481-1.042-5.245-4.934-4.177-8.317 1.261-3.99 6.158-6.873 9.642-4.733 9.803 6.023 17.693 4.498 25.463.008 3.548-2.05 8.387.734 9.648 4.725 1.068 3.383-.696 7.275-4.177 8.317-2.87.858-6.163-.66-6.984-3.632-.65-2.356.625-5.056 3.088-5.651 1.84-.446 3.953.588 4.318 2.542.247 1.323-.551 2.869-1.998 2.986-.795.065-1.837-.526-1.653-1.453M32.268 29.4h15.313M21.92 35.838h36.01"
     fill="none"
     stroke="#01305c"
     stroke-width="1.938"
     id="path6"
     style="stroke:#ffffff" />
  <path
     d="M50.083 34.943l.12 15.374c15.234-2.879 26.262-12.065 26.262-22.943 0-13.25-16.36-23.99-36.54-23.99-20.181 0-36.54 10.74-36.54 23.99 0 10.926 11.125 20.146 26.363 22.963l.018-15.394"
     fill="none"
     stroke="#01305c"
     stroke-width="2.769"
     id="path8"
     style="stroke:#ffffff" />
  <path
     d="M36.538 35.098v15.313m6.772-15.313v15.313"
     fill="none"
     stroke="#01305c"
     stroke-width="1.858"
     id="path10"
     style="stroke:#ffffff" />
  <path
     d="M19.123 14.437h41.603"
     fill="none"
     stroke="#01305c"
     stroke-width="1.938"
     id="path12"
     style="stroke:#ffffff" />
  <g
     fill="#01305c"
     font-weight="400"
     font-family="sans-serif"
     letter-spacing="0"
     word-spacing="0"
     id="g14"
     style="fill:#ffffff">
    <text
       y="631.755"
       x="443.694"
       style="line-height:125%;fill:#ffffff"
       font-size="83.511"
       transform="translate(-44.295 -141.649) scale(.27687)"
       id="text16">
      <tspan
         style="-inkscape-font-specification:'Comfortaa Bold';fill:#ffffff"
         y="631.755"
         x="443.694"
         font-weight="700"
         font-family="Comfortaa"
         id="tspan18">Ветров</tspan>
    </text>
    <text
       y="687.024"
       x="487.232"
       style="line-height:125%;fill:#ffffff"
       font-size="46.783"
       transform="translate(-44.295 -141.649) scale(.27687)"
       id="text20">
      <tspan
         style="line-height:125%;-inkscape-font-specification:'Noto Sans, Normal';text-align:start;fill:#ffffff"
         y="687.024"
         x="487.232"
         font-family="Noto Sans"
         id="tspan22">и Партнеры</tspan>
    </text>
    <text
       style="line-height:125%;fill:#ffffff"
       x="448.864"
       y="552.142"
       font-size="39.085"
       transform="translate(-44.295 -141.649) scale(.27687)"
       id="text24">
      <tspan
         x="448.864"
         y="552.142"
         style="line-height:125%;-inkscape-font-specification:'Noto Sans, Normal';text-align:start;fill:#ffffff"
         font-family="Noto Sans"
         id="tspan26">Адвокатское бюро</tspan>
    </text>
  </g>
</svg>
