<?xml version="1.0" encoding="UTF-8" standalone="no"?>
<svg
   xmlns:dc="http://purl.org/dc/elements/1.1/"
   xmlns:cc="http://creativecommons.org/ns#"
   xmlns:rdf="http://www.w3.org/1999/02/22-rdf-syntax-ns#"
   xmlns:svg="http://www.w3.org/2000/svg"
   xmlns="http://www.w3.org/2000/svg"
   xmlns:sodipodi="http://sodipodi.sourceforge.net/DTD/sodipodi-0.dtd"
   xmlns:inkscape="http://www.inkscape.org/namespaces/inkscape"
   version="1"
   width="82.966957"
   height="73.25248"
   viewBox="0 0 62.225204 54.939347"
   id="svg2"
   inkscape:version="0.91 r13725"
   sodipodi:docname="anvil.svg">
  <metadata
     id="metadata10">
    <rdf:RDF>
      <cc:Work
         rdf:about="">
        <dc:format>image/svg+xml</dc:format>
        <dc:type
           rdf:resource="http://purl.org/dc/dcmitype/StillImage" />
        <dc:title></dc:title>
      </cc:Work>
    </rdf:RDF>
  </metadata>
  <defs
     id="defs8" />
  <sodipodi:namedview
     pagecolor="#ffffff"
     bordercolor="#666666"
     borderopacity="1"
     objecttolerance="10"
     gridtolerance="10"
     guidetolerance="10"
     inkscape:pageopacity="0"
     inkscape:pageshadow="2"
     inkscape:window-width="939"
     inkscape:window-height="624"
     id="namedview6"
     showgrid="false"
     inkscape:zoom="0.16635335"
     inkscape:cx="684.74299"
     inkscape:cy="599.00121"
     inkscape:window-x="41"
     inkscape:window-y="0"
     inkscape:window-maximized="0"
     inkscape:current-layer="svg2"
     fit-margin-top="3"
     fit-margin-bottom="3"
     fit-margin-left="3"
     fit-margin-right="3" />
  <path
     d="m 57.866572,2.3766399 c -0.225715,0.0734 -0.41193,0.12415 -0.41193,0.10722 0,-0.0169 -0.03386,-0.006 -0.06771,0.0226 -0.0395,0.0339 -0.146715,0.079 -0.242644,0.10157 -0.191858,0.0508 -0.197501,0.0564 -0.310358,0.10157 -0.04514,0.0169 -0.378073,0.12415 -0.733575,0.237 -0.355501,0.11286 -0.688431,0.22008 -0.733574,0.237 -0.04514,0.0169 -0.107214,0.0395 -0.141072,0.0508 -0.09593,0.0226 -1.828292,0.58686 -2.708581,0.88029 -0.462716,0.158 -0.869003,0.28779 -0.90286,0.29343 -0.02822,0.006 -0.197501,0.0621 -0.366787,0.1185 -0.169287,0.0621 -0.321644,0.11286 -0.338573,0.11286 -0.158001,0.0338 -0.553002,0.16928 -0.603788,0.21443 -0.0395,0.0282 -0.09593,0.0338 -0.124143,0.0169 -0.02822,-0.0226 -0.06772,-0.0113 -0.09029,0.0226 -0.02257,0.0339 -0.06207,0.0451 -0.09029,0.0282 -0.02822,-0.0226 -0.05079,-0.006 -0.05079,0.0282 0,0.0339 -0.02257,0.0508 -0.05643,0.0282 -0.02821,-0.0169 -0.09593,-0.006 -0.152358,0.0226 -0.05643,0.0339 -0.316001,0.12414 -0.581216,0.20314 -0.265215,0.079 -0.519145,0.16929 -0.564288,0.19186 -0.107215,0.0564 -0.462716,0.14672 -0.519145,0.12979 -0.02821,-0.006 -0.04514,0.0113 -0.04514,0.0339 0,0.0282 -0.03386,0.0508 -0.06771,0.0508 -0.06207,0 -1.670292,0.5135 -1.963722,0.62636 -0.04514,0.0169 -0.09593,0.0339 -0.112857,0.0395 -0.01693,0 -0.29343,0.0903 -0.620717,0.1975 -0.327287,0.10722 -0.609431,0.1975 -0.632002,0.20315 -0.02821,0.006 -0.05643,0.0169 -0.07336,0.0226 -0.01693,0.006 -0.04514,0.0169 -0.06771,0.0226 -0.02821,0.006 -0.801289,0.25957 -1.721078,0.55864 -0.925432,0.30472 -1.68722,0.54736 -1.692863,0.54172 -0.01129,-0.006 -0.06771,0.0169 -0.135429,0.0508 -0.06207,0.0339 -0.180572,0.0734 -0.25393,0.0903 -0.07336,0.0169 -0.400644,0.1185 -0.727931,0.23136 -0.327287,0.11286 -0.632002,0.21443 -0.677145,0.22571 -0.04514,0.0113 -0.440145,0.14108 -0.874646,0.28215 -0.434502,0.14671 -0.812575,0.27086 -0.846432,0.2765 -0.02821,0.0113 -0.09593,0.0339 -0.141072,0.0508 -0.04514,0.0169 -0.806931,0.26521 -1.692863,0.54735 -0.885932,0.28215 -1.681578,0.5417201 -1.777507,0.5812201 -0.09029,0.0339 -0.191857,0.0677 -0.225715,0.0734 -0.02821,0.006 -0.406287,0.12414 -0.835146,0.27086 -0.434501,0.14107 -0.806931,0.25957 -0.829503,0.25957 -0.02821,0 -0.1185,0.0282 -0.208786,0.0677 -0.08464,0.0339 -0.169286,0.0677 -0.186215,0.0734 -0.01693,0.006 -0.129786,0.0395 -0.259572,0.0734 -0.259573,0.079 -0.58686,0.28214 -0.643289,0.40629 -0.02257,0.0451 -0.06207,0.13542 -0.09593,0.19185 -0.06207,0.12415 0.01129,0.40629 0.485287,1.93551 0.02821,0.10157 0.0395,0.18621 0.02257,0.18621 -0.01693,0 -0.0056,0.0339 0.02257,0.0677 0.05643,0.0734 0.141072,0.33857 0.158001,0.49657 0.0056,0.0508 0.0395,0.14672 0.079,0.21443 0.03386,0.0677 0.05079,0.12415 0.02821,0.12415 -0.01693,0 0,0.0395 0.0395,0.0959 0.04514,0.0508 0.07336,0.10722 0.06771,0.12415 -0.02257,0.0621 0.09593,0.42886 0.169286,0.5135 0.09593,0.1185 0.440145,0.22571 0.603788,0.19186 0.197501,-0.0452 0.852075,-0.24829 0.987504,-0.30472 0.237001,-0.10157 0.496573,-0.16928 0.536073,-0.14107 0.02822,0.0169 0.06207,0.006 0.079,-0.0226 0.01693,-0.0282 0.220072,-0.10722 0.440144,-0.16929 0.225715,-0.0677 0.462716,-0.14671 0.524788,-0.17493 0.169286,-0.0734 1.060861,-0.3555 1.145504,-0.3555 0.03386,0 0.06771,-0.0226 0.06771,-0.0508 0,-0.0282 0.02257,-0.0395 0.05079,-0.0169 0.02822,0.0169 0.06771,0.006 0.09029,-0.0226 0.01693,-0.0339 0.06771,-0.0451 0.112858,-0.0226 0.04514,0.0169 0.08464,-0.006 0.08464,-0.0451 0,-0.0395 0.01693,-0.0564 0.03386,-0.0395 0.02822,0.0339 0.569931,-0.12414 0.840789,-0.237 0.06207,-0.0282 0.25393,-0.0903 0.423216,-0.14107 0.169286,-0.0508 0.349858,-0.10722 0.395001,-0.12415 0.04514,-0.0169 0.112858,-0.0395 0.141072,-0.0451 0.03386,-0.006 0.310359,-0.0959 0.620717,-0.1975 0.310358,-0.10721 0.592502,-0.18621 0.632002,-0.18621 0.0395,0 0.07336,-0.0226 0.07336,-0.0508 0,-0.0226 0.03386,-0.0451 0.07336,-0.0451 0.0395,0 0.383716,-0.10157 0.773074,-0.23136 0.389359,-0.12979 0.733574,-0.237 0.761789,-0.24829 0.03386,-0.006 0.09593,-0.0282 0.141072,-0.0451 0.101571,-0.0395 1.523577,-0.49657 1.602577,-0.51915 0.03386,-0.006 0.101572,-0.0282 0.146715,-0.0451 0.04514,-0.0226 0.49093,-0.16364 0.987503,-0.32164 0.496574,-0.158 0.981861,-0.316 1.072147,-0.3555 0.09593,-0.0339 0.197501,-0.0677 0.225715,-0.0734 0.03386,-0.006 0.502216,-0.158 1.043933,-0.33857 0.541716,-0.18058 1.004432,-0.33293 1.032646,-0.33858 0.02257,-0.006 0.04514,-0.0113 0.05643,-0.0226 0.0056,-0.006 0.05079,-0.0169 0.09593,-0.0282 0.04514,-0.006 0.366787,-0.11286 0.70536,-0.22572 0.344215,-0.11285 0.660216,-0.21443 0.705359,-0.22571 0.04514,-0.0113 0.400645,-0.1241501 0.78436,-0.2539301 0.383716,-0.12979 0.727932,-0.24265 0.761789,-0.25393 0.03386,-0.006 0.101572,-0.0282 0.146715,-0.0451 0.04514,-0.0169 0.378072,-0.12415 0.733574,-0.23701 0.355501,-0.11285 0.699717,-0.22571 0.761788,-0.25392 0.101572,-0.0395 1.422005,-0.46272 1.495363,-0.47965 0.06207,-0.0113 2.426437,-0.78436 2.76501,-0.90286 0.203143,-0.0677 0.598145,-0.1975 0.874646,-0.28214 0.282144,-0.0903 0.541716,-0.18058 0.581216,-0.21443 0.03386,-0.0282 0.06772,-0.0395 0.06772,-0.0226 0,0.0169 0.299072,-0.0677 0.665859,-0.19186 0.361145,-0.12415 0.688432,-0.237 0.716646,-0.24265 0.400644,-0.11285 0.637645,-0.45707 0.558645,-0.82386 -0.05643,-0.28214 -0.05643,-0.28214 -0.158001,-0.56993 -0.04514,-0.14107 -0.09593,-0.30471 -0.107214,-0.36678 -0.01129,-0.0564 -0.0395,-0.14672 -0.05643,-0.19186 -0.01693,-0.0451 -0.07336,-0.237 -0.124144,-0.42322 -0.05643,-0.18621 -0.129786,-0.4345 -0.174929,-0.553 -0.04514,-0.11286 -0.06771,-0.20879 -0.05079,-0.20879 0.01129,0 -0.01693,-0.0903 -0.06207,-0.1975 -0.04514,-0.10721 -0.06772,-0.1975 -0.05643,-0.1975 0.01693,0 -0.0056,-0.0846 -0.05079,-0.18621 -0.0395,-0.0959 -0.07336,-0.19186 -0.06771,-0.20879 0,-0.0169 -0.0395,-0.1185 -0.09593,-0.23136 -0.06207,-0.12978 -0.152358,-0.22007 -0.276501,-0.26521 -0.25393,-0.0903 -0.338573,-0.0847 -0.812575,0.0677 z m -35.188985,1.65901 c -0.129786,0.14107 -0.197501,0.3555 -0.237001,0.72793 -0.02257,0.18057 -0.05079,0.41757 -0.06207,0.52479 -0.01129,0.10721 -0.03386,0.29907 -0.04514,0.42321 -0.01693,0.12415 -0.0395,0.316 -0.05643,0.42322 -0.01693,0.10721 -0.04514,0.32164 -0.06207,0.47964 -0.01129,0.15236 -0.0395,0.34422 -0.05079,0.42322 -0.01693,0.079 -0.0395,0.28214 -0.05643,0.45143 -0.01129,0.17493 -0.0395,0.37807 -0.05643,0.45143 -0.01693,0.079 -0.04514,0.28214 -0.05643,0.45143 -0.04514,0.51914 -0.09593,0.98186 -0.124144,1.12858 -0.01129,0.079 -0.0395,0.25392 -0.05079,0.395 -0.05643,0.4909301 -0.152357,1.2696401 -0.169286,1.4107201 -0.101572,0.64328 -0.09029,0.7505 0.141072,1.41072 0.129786,0.3555 0.242644,0.69971 0.253929,0.76178 0.02822,0.1185 0.400645,1.23015 0.462716,1.38251 0.01693,0.0451 0.0395,0.11286 0.05079,0.15236 0.01129,0.0733 0.349859,1.11729 0.400645,1.25836 0.01693,0.0451 0.0395,0.10721 0.05079,0.14107 0.0056,0.0282 0.04514,0.14672 0.08464,0.25393 0.09593,0.27086 0.124143,0.36114 0.135429,0.395 0.02821,0.10722 0.158,0.50222 0.1975,0.5925 0.02822,0.0621 0.124144,0.36679 0.220073,0.67715 0.09593,0.31036 0.1975,0.61507 0.225715,0.67714 0.04514,0.11286 0.293429,0.85208 0.316001,0.95929 0.01129,0.0508 0.03386,0.12415 0.129786,0.36679 0.01693,0.0451 0.03386,0.0959 0.03386,0.11286 0.0056,0.0169 0.118501,0.36679 0.25393,0.78436 0.276501,0.8295 0.344215,0.91414 0.756146,0.93672 0.225715,0.0113 0.299072,-0.006 0.699716,-0.17493 0.09593,-0.0452 0.21443,-0.079 0.259573,-0.079 0.05079,0 0.101572,-0.0226 0.124143,-0.0508 0.01693,-0.0282 0.112858,-0.0734 0.208787,-0.0959 0.101571,-0.0169 0.220072,-0.0564 0.270858,-0.0846 0.06771,-0.0339 2.398223,-0.91415 4.198301,-1.58001 0.304715,-0.11285 0.462716,-0.237 0.56993,-0.44578 0.079,-0.15236 0.06771,-0.53608 -0.02257,-0.64329 -0.02821,-0.0339 -0.06771,-0.12979 -0.079,-0.20315 -0.01129,-0.079 -0.0395,-0.19185 -0.06207,-0.25393 -0.02821,-0.0621 -0.06771,-0.17492 -0.09029,-0.25393 -0.02257,-0.079 -0.06207,-0.19185 -0.09029,-0.25392 -0.02257,-0.0621 -0.04514,-0.14108 -0.05079,-0.16929 -0.02257,-0.0903 -0.49093,-1.51229 -0.541716,-1.63644 -0.02257,-0.0621 -0.146715,-0.44578 -0.276501,-0.84643 -0.135429,-0.40628 -0.25393,-0.77307 -0.270859,-0.81821 -0.01693,-0.0452 -0.03386,-0.11286 -0.04514,-0.14108 -0.0056,-0.0339 -0.129786,-0.38936 -0.265215,-0.80129 -0.141072,-0.40628 -0.242644,-0.75614 -0.220072,-0.77307 0.01693,-0.0169 0,-0.0339 -0.03386,-0.0339 -0.0395,0 -0.06771,-0.0508 -0.06771,-0.11285 0,-0.0621 -0.02257,-0.158 -0.05079,-0.21443 -0.02257,-0.0508 -0.101572,-0.2765 -0.169286,-0.49093 -0.07336,-0.22008 -0.141072,-0.43451 -0.152358,-0.47965 -0.01693,-0.0451 -0.02257,-0.0846 -0.01693,-0.0846 0.0056,0 -0.01693,-0.0564 -0.05643,-0.12979 -0.06771,-0.12978 -0.124143,-0.31036 -0.129786,-0.45143 -0.0056,-0.0339 -0.02821,-0.0677 -0.05643,-0.0677 -0.02257,0 -0.04514,-0.0452 -0.04514,-0.10157 0,-0.0508 -0.09029,-0.36115 -0.203144,-0.68844 l -0.203143,-0.5925001 -0.722289,-0.72229 c -0.400644,-0.395 -1.100361,-1.11729 -1.563077,-1.60257 -0.457073,-0.48529 -0.987503,-1.04394 -1.173718,-1.23579 -0.524788,-0.54736 -1.517934,-1.60822 -1.551792,-1.65337 -0.06207,-0.0903 -0.468359,-0.28778 -0.586859,-0.28778 -0.07336,0 -0.169286,0.0451 -0.220072,0.10157 z M 21.955298,23.95501 c -0.01129,0.0846 0.01129,1.19629 0.0395,1.73236 0.03386,0.77307 0.08464,1.264 0.203143,2.00322 0.02821,0.20315 0.06771,0.44015 0.079,0.53608 0.09029,0.59814 0.694074,2.65215 0.806932,2.73679 0.01693,0.0169 0.0395,0.0677 0.05079,0.11286 0.06207,0.27086 0.74486,1.5405 1.224504,2.26844 0.242644,0.36678 0.270858,0.50785 0.05643,0.27085 -0.05643,-0.0621 -0.124143,-0.11285 -0.152358,-0.11285 -0.04514,0 -0.361144,-0.20315 -0.440144,-0.28215 -0.01693,-0.0169 -0.191858,-0.16928 -0.395002,-0.33857 -0.632002,-0.52479 -1.094718,-1.04393 -1.546148,-1.72108 -0.440144,-0.66022 -1.027004,-1.83958 -0.953646,-1.91293 0.02257,-0.0169 0,-0.0339 -0.0395,-0.0339 -0.0395,0 -0.06207,-0.0169 -0.04514,-0.0339 0.02257,-0.0169 0,-0.1185 -0.04514,-0.22571 -0.04514,-0.10722 -0.06207,-0.19186 -0.04514,-0.19186 0.02257,0 0.01129,-0.0339 -0.02257,-0.0734 -0.03386,-0.0395 -0.07336,-0.13543 -0.08464,-0.20879 -0.01693,-0.079 -0.06771,-0.32164 -0.118501,-0.53607 -0.129786,-0.54736 -0.186215,-0.84079 -0.231358,-1.32608 -0.01129,-0.079 -0.02257,-0.14671 -0.02821,-0.158 -0.0056,-0.006 -0.01693,-0.0395 -0.02257,-0.079 -0.0056,-0.0734 -1.100361,-0.12978 -1.111646,-0.0564 -0.0056,0.0451 -0.03386,1.37121 -0.07336,4.04594 -0.01693,0.99315 -0.02821,1.81701 -0.02821,1.83393 -0.0056,0.0113 -0.06771,-0.0621 -0.141072,-0.17493 -0.378073,-0.55864 -0.857718,-1.89036 -0.964932,-2.70293 -0.01129,-0.079 -0.03386,-0.20315 -0.05079,-0.28215 -0.01693,-0.079 -0.05079,-0.34421 -0.06771,-0.5925 -0.01693,-0.24829 -0.04514,-0.46272 -0.05643,-0.47964 -0.01693,-0.0169 -0.60943,-0.0339 -1.309147,-0.0395 -0.70536,-0.006 -1.326076,-0.0226 -1.376862,-0.0395 -0.05643,-0.0113 -0.101572,-0.006 -0.101572,0.0169 0,0.0226 -0.135429,0.0226 -0.29343,0.006 -0.163643,-0.0226 -0.310358,-0.0169 -0.316001,0.006 -0.01129,0.0282 -0.04514,0.0395 -0.07336,0.0169 -0.07336,-0.0451 -1.264005,-0.0451 -1.343005,0 -0.03386,0.0226 -0.06207,0.0226 -0.06207,-0.006 0,-0.0226 -0.163643,-0.0451 -0.361144,-0.0451 -0.203144,0 -0.349858,0.0226 -0.327287,0.0508 0.01693,0.0282 -0.0056,0.0339 -0.04514,0.006 -0.079,-0.0508 -1.004432,-0.0564 -1.055218,-0.0113 -0.01693,0.0169 -0.09593,0.006 -0.174929,-0.0226 -0.08464,-0.0339 -0.163644,-0.0339 -0.191858,-0.006 -0.02822,0.0282 -0.152358,0.0339 -0.270858,0.0113 -0.118501,-0.0226 -0.248287,-0.0226 -0.287787,0.006 -0.0395,0.0226 -0.101572,0.0282 -0.129786,0.0113 -0.079,-0.0508 -0.3329302,-0.0451 -0.4175732,0.006 -0.0395,0.0226 -0.06771,0.0226 -0.06771,-0.006 0,-0.0226 -0.09593,-0.0395 -0.208786,-0.0339 -0.462716,0.0169 -0.62636,0.0226 -1.089076,0.0226 -2.855296,-0.006 -5.958878,0.0113 -5.992736,0.0282 -0.04514,0.0282 0.174929,0.43451 0.248287,0.46272 0.02257,0.0113 0.04514,0.0508 0.04514,0.0903 0,0.12978 0.846432,1.21886 1.27529,1.63643 0.400645,0.395 0.829503,0.77872 1.151147,1.027 0.417573,0.32729 1.173719,0.86901 1.213219,0.86901 0.01129,0 0.135429,0.0734 0.270858,0.16928 0.141072,0.0903 0.282144,0.16929 0.316001,0.16929 0.03386,0 0.06207,0.0226 0.06207,0.0451 0,0.0226 0.08464,0.0847 0.186215,0.12979 0.09593,0.0508 0.423216,0.21443 0.716645,0.36679 0.29343,0.15235 0.699717,0.34985 0.902861,0.44014 0.203143,0.0903 0.468359,0.20879 0.586859,0.27086 0.124143,0.0564 0.259573,0.10157 0.299073,0.10157 0.0395,0 0.1185,0.0226 0.174929,0.0508 0.3385732,0.16928 1.1172902,0.44578 1.8734352,0.65457 0.29343,0.079 0.575574,0.16364 0.620717,0.18057 0.04514,0.0226 0.129786,0.0395 0.186215,0.0452 0.05079,0.0113 0.112857,0.0226 0.141072,0.0282 0.02257,0.0113 0.06771,0.0226 0.09593,0.0282 l 0.08464,0.0282 c 0.06771,0.0226 0.265215,0.0621 0.440144,0.0846 0.101572,0.0113 0.208787,0.0395 0.242644,0.0564 0.03386,0.0226 0.141072,0.0508 0.237001,0.0677 0.101572,0.0113 0.242644,0.0338 0.321644,0.0508 1.15679,0.20314 1.963721,0.29343 2.962511,0.32729 0.253929,0.006 0.485287,0.0282 0.519144,0.0508 0.03386,0.0226 0.079,0.0169 0.101572,-0.0169 0.02257,-0.0339 0.06207,-0.0395 0.09593,-0.0226 0.06771,0.0452 1.179362,0.079 2.76501,0.0959 0.553002,0.006 1.004432,0.0282 1.004432,0.0508 0,0.0226 0.07336,0.0169 0.163644,-0.0113 0.09029,-0.0226 0.174929,-0.0339 0.191858,-0.0226 0.01129,0.0169 0.502216,0.0282 1.089075,0.0339 0.818217,0.006 1.15679,0.0282 1.467148,0.10721 0.445788,0.11286 1.359934,0.51915 1.749292,0.77872 0.141072,0.0959 0.276501,0.17493 0.304716,0.17493 0.02257,0 0.05643,0.0226 0.06771,0.0451 0.01129,0.0282 0.146715,0.12979 0.299073,0.237 0.423216,0.28779 1.326076,1.21887 1.619506,1.66465 0.270858,0.42322 0.632002,1.10036 0.581216,1.10036 -0.01693,0 0,0.0564 0.0395,0.12415 0.079,0.15235 0.07336,0.12414 0.191858,0.63764 0.09593,0.42886 0.124144,1.28094 0.06207,1.77751 -0.0395,0.32164 -0.079,0.53607 -0.09593,0.53607 -0.0056,0 -0.01693,0.0621 -0.02821,0.14107 -0.02821,0.23136 -0.304716,0.95929 -0.519145,1.35994 -0.688431,1.29786 -1.963722,2.38693 -3.436513,2.95122 -0.220072,0.079 -0.457073,0.158 -0.519144,0.17493 -0.06771,0.0113 -0.146715,0.0339 -0.17493,0.0508 -0.06771,0.0451 -0.82386,0.20878 -1.134218,0.24264 -0.141072,0.0169 -0.45143,0.0339 -0.688431,0.0395 -0.242644,0.006 -0.440145,0.0226 -0.440145,0.0451 0,0.0282 -0.03386,0.0395 -0.06771,0.0282 -0.05643,-0.006 -0.07336,0.52479 -0.08464,2.44337 l -0.01129,2.46029 0.773074,0.006 c 0.423216,0.006 2.144294,0.0226 3.825871,0.0395 l 3.052797,0.0339 0.0056,-0.66022 c 0.0056,-0.7505 0.01693,-3.95565 0.01129,-4.06287 0,-0.0508 -0.242644,-0.0734 -0.942361,-0.0846 l -0.94236,-0.0169 1.122932,-0.67715 c 0.615074,-0.37243 1.224505,-0.73921 1.359934,-0.81257 0.208786,-0.1185 0.287787,-0.22572 0.327287,-0.45707 0.01129,-0.0621 0.163643,-0.4345 0.276501,-0.67715 0.06771,-0.14107 0.1185,-0.26521 0.1185,-0.28214 0.0056,-0.0395 0.553002,-0.92543 0.598145,-0.95929 0.01693,-0.0169 0.09029,-0.1185 0.158001,-0.22572 0.124143,-0.20314 0.180572,-0.2765 0.733574,-0.90286 0.33293,-0.37243 0.857717,-0.89157 1.077789,-1.06086 0.07336,-0.0508 0.186215,-0.14671 0.25393,-0.20878 0.06771,-0.0621 0.180572,-0.14672 0.248287,-0.18622 0.1185,-0.0677 0.124143,-0.0621 0.05643,0.0451 -0.0395,0.0621 -0.09029,0.11286 -0.107214,0.11286 -0.01693,0 -0.079,0.10157 -0.135429,0.22572 -0.05643,0.12414 -0.124144,0.22571 -0.152358,0.22571 -0.02257,0 -0.04514,0.0282 -0.04514,0.0621 0,0.0339 -0.05079,0.13543 -0.118501,0.22572 -0.06207,0.0903 -0.09593,0.16364 -0.07336,0.16364 0.01693,0 0.0056,0.0395 -0.03386,0.0846 -0.135429,0.16365 -0.78436,1.55744 -0.812575,1.7493 -0.0056,0.0282 -0.02821,0.0846 -0.05079,0.12414 -0.03386,0.0508 -0.366788,1.04393 -0.406288,1.20193 -0.0056,0.0169 -0.0395,0.14107 -0.079,0.28215 -0.0395,0.14107 -0.08464,0.316 -0.09593,0.395 -0.01693,0.079 -0.04514,0.19186 -0.06207,0.25393 -0.05078,0.15236 -0.09029,0.33857 -0.158,0.77307 -0.01693,0.10157 -0.05643,0.31036 -0.08464,0.46836 -0.101572,0.50786 -0.17493,1.32608 -0.191858,2.15558 -0.01129,0.54172 0,0.63765 0.079,0.64329 0.513502,0.0282 1.580006,0.0113 1.580006,-0.0226 0,-0.0282 0.02821,-0.0282 0.06207,-0.006 0.06771,0.0395 0.885931,0.0564 0.925432,0.0113 0.01693,-0.0113 0.158,-0.0113 0.310358,0.0113 0.158,0.0226 0.299072,0.0169 0.316001,-0.006 0.01693,-0.0282 0.08464,-0.0226 0.158001,0.006 0.07336,0.0282 0.146714,0.0339 0.163643,0.0169 0.02257,-0.0169 1.839578,-0.0339 4.045943,-0.0451 2.200723,-0.006 4.023372,-0.0282 4.045944,-0.0451 0.03386,-0.0395 0.03386,-0.59815 -0.01129,-1.25272 -0.06771,-1.13422 -0.107215,-1.58001 -0.141072,-1.58001 -0.0056,0 -0.01693,-0.11285 -0.02821,-0.25393 -0.01693,-0.29907 -0.129787,-0.92543 -0.203144,-1.12857 -0.02257,-0.079 -0.05643,-0.20315 -0.06771,-0.28215 -0.01129,-0.079 -0.03386,-0.18057 -0.05079,-0.22571 -0.02257,-0.0451 -0.09029,-0.2765 -0.163643,-0.50786 -0.152358,-0.5135 -0.536073,-1.3825 -0.829503,-1.89036 -0.169286,-0.29908 -0.733574,-1.12294 -0.880289,-1.29222 -0.08464,-0.0903 -0.146715,-0.18057 -0.146715,-0.1975 0,-0.0169 -0.06771,-0.10722 -0.146715,-0.19186 -0.079,-0.0903 -0.135429,-0.16929 -0.124143,-0.18057 0.02257,-0.0226 0.727931,0.40628 0.778717,0.474 0.01693,0.0169 0.118501,0.10157 0.225715,0.18057 0.259573,0.1975 0.885932,0.81257 1.111647,1.09472 0.457073,0.56993 0.637645,0.81822 0.637645,0.869 0,0.0282 0.02257,0.0621 0.04514,0.0734 0.09593,0.0339 0.857718,1.41072 0.857718,1.5405 0,0.11286 0.253929,0.59251 0.310358,0.59251 0.0395,0 0.101572,0.0395 0.141072,0.0846 0.03386,0.0451 0.08464,0.079 0.101572,0.0677 0.02257,-0.006 0.101572,0.0339 0.180572,0.079 0.079,0.0508 0.37243,0.23136 0.648931,0.40629 0.282144,0.17493 0.682788,0.42886 0.897218,0.56993 l 0.389358,0.25958 -1.004432,0.0113 -1.004432,0.0169 0.01693,0.62072 c 0.0056,0.33857 0.01693,1.39379 0.02822,2.33615 0.01129,0.94236 0.03386,1.72108 0.0395,1.73236 0.01693,0.0113 7.973386,0.0677 8.007243,0.0508 0.02257,-0.006 0.05079,-4.76259 0.02822,-4.85288 -0.02257,-0.079 -0.079,-0.1185 -0.180572,-0.12978 -0.08464,-0.006 -0.180573,-0.0339 -0.21443,-0.0621 -0.03386,-0.0226 -0.135429,-0.0621 -0.231358,-0.0846 -0.09029,-0.0226 -0.282144,-0.0959 -0.417573,-0.158 -0.141072,-0.0621 -0.282144,-0.1185 -0.316001,-0.12414 -0.05079,-0.0113 -0.925432,-0.46272 -1.264005,-0.65458 -0.852074,-0.48528 -1.924221,-1.422 -2.629581,-2.31358 -0.186214,-0.23135 -0.361144,-0.44014 -0.383715,-0.45707 -0.02822,-0.0169 -0.05079,-0.0564 -0.05079,-0.0846 -0.0056,-0.0564 -0.163644,-0.316 -0.220072,-0.36115 -0.129787,-0.0959 -0.852075,-1.7775 -0.919789,-2.12736 -0.01129,-0.0564 -0.05079,-0.21443 -0.09029,-0.34986 -0.03386,-0.13543 -0.079,-0.34422 -0.09029,-0.46836 -0.01693,-0.12414 -0.04514,-0.33293 -0.06772,-0.46272 -0.05079,-0.25392 -0.0395,-1.2245 0.01129,-1.44457 0.01693,-0.079 0.05079,-0.23136 0.07336,-0.33857 0.02257,-0.10722 0.04514,-0.20879 0.04514,-0.22572 0.169286,-0.72229 0.902861,-2.18944 1.41072,-2.80451 0.02821,-0.0395 0.08464,-0.10157 0.112857,-0.14107 1.314791,-1.73801 3.50987,-3.26723 5.53002,-3.85409 0.186215,-0.0508 0.400645,-0.1185 0.479645,-0.14107 0.079,-0.0282 0.231358,-0.0621 0.338573,-0.079 0.107214,-0.0169 0.259572,-0.0451 0.338572,-0.0621 0.079,-0.0169 0.231358,-0.0395 0.338573,-0.0564 0.107215,-0.0113 0.197501,-0.0282 0.197501,-0.0282 0,-0.0339 0.953646,-0.0564 2.849653,-0.079 1.19629,-0.0113 2.212008,-0.0282 2.257151,-0.0282 0.07336,-0.006 0.08464,-0.41757 0.09593,-3.32365 l 0.01693,-3.31237 -5.349449,-0.0113 c -2.939939,-0.006 -11.47197,-0.0226 -18.954426,-0.0395 -7.488099,-0.0169 -13.616264,-0.0169 -13.621907,0.0113 z"
     id="path4"
     style="fill:#ffffff"
     inkscape:connector-curvature="0" />
</svg>
